<?xml version="1.0" standalone="no"?><!DOCTYPE svg PUBLIC "-//W3C//DTD SVG 1.1//EN" "http://www.w3.org/Graphics/SVG/1.1/DTD/svg11.dtd"><svg t="1548232214196" class="icon" style="" viewBox="0 0 1024 1024" version="1.1" xmlns="http://www.w3.org/2000/svg" p-id="6424" xmlns:xlink="http://www.w3.org/1999/xlink" width="60" height="60"><defs><style type="text/css"></style></defs><path d="M 77.6955 889.08 l 129.205 0 L 206.9 671.67 L 77.6955 777.613 L 77.6955 889.08 Z M 294.688 599.629 l 0 289.45 l 129.227 0 L 423.915 601.352 l -64.5747 -54.664 L 294.688 599.629 Z M 728.752 889.08 l 129.229 0 L 857.981 423.464 L 728.752 534.1 L 728.752 889.08 Z M 511.74 675.687 l 0 213.393 l 129.185 0 L 640.925 609.268 l -103.261 88.3881 L 511.74 675.687 Z M 695.212 189.485 L 800.333 292.249 L 537.666 517.119 L 359.34 366.106 L 76.9639 597.691 l 0 100.044 l 282.376 -231.582 l 178.325 150.991 l 317.277 -271.558 l 88.0688 86.1081 L 943.011 189.485 L 695.212 189.485 Z" p-id="6425"></path></svg>