<?xml version="1.0" standalone="no"?><!DOCTYPE svg PUBLIC "-//W3C//DTD SVG 1.1//EN" "http://www.w3.org/Graphics/SVG/1.1/DTD/svg11.dtd"><svg t="1548646891735" class="icon" style="" viewBox="0 0 1024 1024" version="1.1" xmlns="http://www.w3.org/2000/svg" p-id="1726" xmlns:xlink="http://www.w3.org/1999/xlink" width="60" height="60"><defs><style type="text/css"></style></defs><path d="M934.216 374.257h-83.451c-3.963 0-7.614 1.182-10.885 2.949L802.258 263.89c-12.032-64.466-57.4-95.55-113.152-95.55H335.693c-64 0-102.846 41.764-113.157 95.488l-37.714 113.7c-3.43-1.986-7.327-3.271-11.556-3.271H89.795c-12.82 0-23.235 10.393-23.235 23.255v20.162c0 12.82 10.409 23.235 23.235 23.235l31.6 5.401c-9.968 19.497-15.672 41.81-15.672 67.774l-11.7 133.75c0 3.875 0.287 7.823 0.769 11.791-0.446 2.427-0.768 4.961-0.768 7.552v160.901c0 22.897 18.585 41.457 41.477 41.457h63.298c22.912 0 41.472-18.56 41.472-41.457v-51.712h544.22v51.712c0 22.897 18.57 41.457 41.473 41.457h63.303c22.897 0 41.477-18.56 41.477-41.457V667.177c0-2.59-0.322-5.125-0.773-7.552 0.461-3.973 0.773-7.916 0.773-11.797L919.04 514.084c0-26.025-5.714-48.359-15.729-67.917l30.894-5.258c12.852 0 23.235-10.414 23.235-23.24v-20.157c0.005-12.867-10.383-23.255-23.224-23.255z m-683.771-23.819l27.627-73.523 0.39-1.725c2.744-14.869 8.888-17.516 17.945-29.005h432.497c9.144 11.802 14.848 14.797 17.377 28.836l28.068 75.417 10.27 40.966c-2.334 29.972-38.353 53.652-68.32 53.652H308.49c-29.993 0-66.007-23.68-68.331-53.652l10.286-40.966z m19.359 349.67c-34.688 0-62.797-28.108-62.797-62.801s28.103-62.802 62.797-62.802 62.801 28.099 62.801 62.802c-0.005 34.693-28.108 62.802-62.801 62.802z m485.16 0c-34.693 0-62.817-28.108-62.817-62.801s28.13-62.802 62.817-62.802 62.797 28.099 62.797 62.802c0 34.693-28.109 62.802-62.797 62.802z" p-id="1727"></path></svg>