<?xml version="1.0" standalone="no"?><!DOCTYPE svg PUBLIC "-//W3C//DTD SVG 1.1//EN" "http://www.w3.org/Graphics/SVG/1.1/DTD/svg11.dtd"><svg t="1559119850314" class="icon" style="" viewBox="0 0 1463 1024" version="1.1" xmlns="http://www.w3.org/2000/svg" p-id="5535" xmlns:xlink="http://www.w3.org/1999/xlink" width="91.4375" height="64"><defs><style type="text/css"></style></defs><path d="M1206.857143 877.714286l0 73.142857L1206.857143 877.714286M256 877.714286l0 73.142857L256 877.714286M987.428571 0 475.428571 0C354.230857 0 256 98.230857 256 219.428571l0 109.714286L219.428571 329.142857c-121.197714 0-219.428571 98.230857-219.428571 219.428571l0 256c0 40.411429 32.731429 73.142857 73.142857 73.142857l109.714286 0 0 73.142857c0 40.374857 32.731429 73.142857 73.142857 73.142857 40.411429 0 73.142857-32.768 73.142857-73.142857l0-73.142857 804.571429 0 0 73.142857c0 40.374857 32.731429 73.142857 73.142857 73.142857 40.374857 0 73.142857-32.768 73.142857-73.142857l0-73.142857 109.714286 0c40.374857 0 73.142857-32.731429 73.142857-73.142857l0-256c0-121.197714-98.230857-219.428571-219.428571-219.428571l-36.571429 0L1206.857143 219.428571C1206.857143 98.230857 1108.626286 0 987.428571 0L987.428571 0zM329.142857 329.142857 329.142857 219.428571c0-80.676571 65.609143-146.285714 146.285714-146.285714l512 0c80.676571 0 146.285714 65.609143 146.285714 146.285714l0 109.714286L329.142857 329.142857 329.142857 329.142857zM256 402.285714l950.857143 0 0 0 36.571429 0c80.676571 0 146.285714 65.609143 146.285714 146.285714l0 256-109.714286 0c0-40.411429-32.731429-73.142857-73.142857-73.142857-40.411429 0-73.142857 32.731429-73.142857 73.142857L329.142857 804.571429c0-40.411429-32.731429-73.142857-73.142857-73.142857-40.411429 0-73.142857 32.731429-73.142857 73.142857L73.142857 804.571429l0-256c0-80.676571 65.609143-146.285714 146.285714-146.285714L256 402.285714 256 402.285714 256 402.285714z" p-id="5536" fill="#FFFFFF"></path><path d="M365.714286 475.428571 292.571429 475.428571c-20.187429 0-36.571429 16.384-36.571429 36.571429 0 20.187429 16.384 36.571429 36.571429 36.571429l73.142857 0c20.187429 0 36.571429-16.384 36.571429-36.571429C402.285714 491.812571 385.901714 475.428571 365.714286 475.428571L365.714286 475.428571z" p-id="5537" fill="#FFFFFF"></path><path d="M1170.285714 475.428571l-73.142857 0c-20.187429 0-36.571429 16.384-36.571429 36.571429 0 20.187429 16.384 36.571429 36.571429 36.571429l73.142857 0c20.187429 0 36.571429-16.384 36.571429-36.571429C1206.857143 491.812571 1190.473143 475.428571 1170.285714 475.428571L1170.285714 475.428571z" p-id="5538" fill="#FFFFFF"></path></svg>