<?xml version="1.0" standalone="no"?><!DOCTYPE svg PUBLIC "-//W3C//DTD SVG 1.1//EN" "http://www.w3.org/Graphics/SVG/1.1/DTD/svg11.dtd"><svg t="1560163058715" class="icon" style="" viewBox="0 0 1024 1024" version="1.1" xmlns="http://www.w3.org/2000/svg" p-id="2272" xmlns:xlink="http://www.w3.org/1999/xlink" width="64" height="64"><defs><style type="text/css"></style></defs><path d="M511.68431 61.631686C264.190543 61.631686 63.53043 262.271332 63.53043 509.766123c0 247.535723 200.660112 448.174346 448.15388 448.174346 247.51628 0 448.176392-200.638623 448.176392-448.174346C959.860702 262.271332 759.20059 61.631686 511.68431 61.631686zM353.274464 685.850513 239.365134 685.850513c-8.712429 0-15.778358-7.086395-15.778358-15.839757 0-8.755408 7.065929-15.84078 15.778358-15.84078l113.909329 0c8.712429 0 15.798824 7.086395 15.798824 15.84078C369.074312 678.764118 361.986893 685.850513 353.274464 685.850513zM353.274464 628.635417 239.365134 628.635417c-8.712429 0-15.778358-7.106862-15.778358-15.861246 0-8.733918 7.065929-15.84078 15.778358-15.84078l113.909329 0c8.712429 0 15.798824 7.106862 15.798824 15.84078C369.074312 621.527532 361.986893 628.635417 353.274464 628.635417zM353.274464 571.420321 239.365134 571.420321c-8.712429 0-15.778358-7.086395-15.778358-15.839757 0-8.755408 7.065929-15.84078 15.778358-15.84078l113.909329 0c8.712429 0 15.798824 7.086395 15.798824 15.84078C369.074312 564.333926 361.986893 571.420321 353.274464 571.420321zM552.642141 685.850513 438.732811 685.850513c-8.713452 0-15.798824-7.086395-15.798824-15.839757 0-8.755408 7.086395-15.84078 15.798824-15.84078l113.908306 0c8.713452 0 15.778358 7.086395 15.778358 15.84078C568.420499 678.764118 561.35457 685.850513 552.642141 685.850513zM552.642141 628.635417 438.732811 628.635417c-8.713452 0-15.798824-7.106862-15.798824-15.861246 0-8.733918 7.086395-15.84078 15.798824-15.84078l113.908306 0c8.713452 0 15.778358 7.106862 15.778358 15.84078C568.420499 621.527532 561.35457 628.635417 552.642141 628.635417zM552.642141 571.420321 438.732811 571.420321c-8.713452 0-15.798824-7.086395-15.798824-15.839757 0-8.755408 7.086395-15.84078 15.798824-15.84078l113.908306 0c8.713452 0 15.778358 7.086395 15.778358 15.84078C568.420499 564.333926 561.35457 571.420321 552.642141 571.420321zM552.642141 514.225691 438.732811 514.225691c-8.713452 0-15.798824-7.086395-15.798824-15.861246 0-8.733918 7.086395-15.84078 15.798824-15.84078l113.908306 0c8.713452 0 15.778358 7.106862 15.778358 15.84078C568.420499 507.140319 561.35457 514.225691 552.642141 514.225691zM552.642141 457.010595 438.732811 457.010595c-8.713452 0-15.798824-7.106862-15.798824-15.861246 0-8.733918 7.086395-15.84078 15.798824-15.84078l113.908306 0c8.713452 0 15.778358 7.106862 15.778358 15.84078C568.420499 449.903733 561.35457 457.010595 552.642141 457.010595zM552.642141 399.795499 438.732811 399.795499c-8.713452 0-15.798824-7.087419-15.798824-15.84078s7.086395-15.839757 15.798824-15.839757l113.908306 0c8.713452 0 15.778358 7.086395 15.778358 15.839757S561.35457 399.795499 552.642141 399.795499zM552.642141 342.601892 438.732811 342.601892c-8.713452 0-15.798824-7.107885-15.798824-15.861246 0-8.733918 7.086395-15.84078 15.798824-15.84078l113.908306 0c8.713452 0 15.778358 7.107885 15.778358 15.84078C568.420499 335.494007 561.35457 342.601892 552.642141 342.601892zM552.642141 285.365306 438.732811 285.365306c-8.713452 0-15.798824-7.086395-15.798824-15.84078 0-8.754385 7.086395-15.84078 15.798824-15.84078l113.908306 0c8.713452 0 15.778358 7.086395 15.778358 15.84078C568.420499 278.278911 561.35457 285.365306 552.642141 285.365306zM752.009817 685.850513 638.078998 685.850513c-8.712429 0-15.778358-7.086395-15.778358-15.839757 0-8.755408 7.065929-15.84078 15.778358-15.84078l113.930819 0c8.712429 0 15.778358 7.086395 15.778358 15.84078C767.788176 678.764118 760.721223 685.850513 752.009817 685.850513zM752.009817 628.635417 638.078998 628.635417c-8.712429 0-15.778358-7.106862-15.778358-15.861246 0-8.733918 7.065929-15.84078 15.778358-15.84078l113.930819 0c8.712429 0 15.778358 7.106862 15.778358 15.84078C767.788176 621.527532 760.721223 628.635417 752.009817 628.635417zM752.009817 571.420321 638.078998 571.420321c-8.712429 0-15.778358-7.086395-15.778358-15.839757 0-8.755408 7.065929-15.84078 15.778358-15.84078l113.930819 0c8.712429 0 15.778358 7.086395 15.778358 15.84078C767.788176 564.333926 760.721223 571.420321 752.009817 571.420321zM752.009817 514.225691 638.078998 514.225691c-8.712429 0-15.778358-7.086395-15.778358-15.861246 0-8.733918 7.065929-15.84078 15.778358-15.84078l113.930819 0c8.712429 0 15.778358 7.106862 15.778358 15.84078C767.788176 507.140319 760.721223 514.225691 752.009817 514.225691zM752.009817 457.010595 638.078998 457.010595c-8.712429 0-15.778358-7.106862-15.778358-15.861246 0-8.733918 7.065929-15.84078 15.778358-15.84078l113.930819 0c8.712429 0 15.778358 7.106862 15.778358 15.84078C767.788176 449.903733 760.721223 457.010595 752.009817 457.010595zM752.009817 399.795499 638.078998 399.795499c-8.712429 0-15.778358-7.087419-15.778358-15.84078s7.065929-15.839757 15.778358-15.839757l113.930819 0c8.712429 0 15.778358 7.086395 15.778358 15.839757S760.721223 399.795499 752.009817 399.795499z" p-id="2273" fill="#ffffff"></path></svg>