<?xml version="1.0" standalone="no"?><!DOCTYPE svg PUBLIC "-//W3C//DTD SVG 1.1//EN" "http://www.w3.org/Graphics/SVG/1.1/DTD/svg11.dtd"><svg t="1559294632828" class="icon" style="" viewBox="0 0 1194 1024" version="1.1" xmlns="http://www.w3.org/2000/svg" p-id="1135" xmlns:xlink="http://www.w3.org/1999/xlink" width="74.625" height="64"><defs><style type="text/css"></style></defs><path d="M1167.701333 331.690667c38.229333 47.616 36.181333 118.101333-8.533333 165.802666l-463.530667 487.082667c-23.381333 24.917333-55.210667 37.376-89.258666 39.424h-4.266667c-31.914667 0-63.744-12.458667-87.210667-33.194667l-6.314666-6.229333L34.389333 495.445333c-42.496-45.653333-46.762667-116.053333-6.314666-163.84L261.888 47.786667A128 128 0 0 1 361.813333 0h472.064c38.229333 0 76.544 18.688 99.925334 47.701333l233.813333 283.989334zM789.333333 444.842667L600.064 681.386667 405.248 440.576c-14.506667-17.066667-36.352-19.2-52.736-2.133333-14.506667 14.933333-14.506667 42.666667-1.877333 59.733333l196.608 242.858667 3.669333 4.266666c29.098667 32 74.666667 29.866667 103.765333-4.266666l189.354667-240.810667c12.714667-17.066667 12.714667-44.714667-1.877333-59.733333-16.384-14.848-38.229333-12.714667-52.736 4.266666z" p-id="1136" fill="#FFFFFF"></path></svg>