<?xml version="1.0" standalone="no"?><!DOCTYPE svg PUBLIC "-//W3C//DTD SVG 1.1//EN" "http://www.w3.org/Graphics/SVG/1.1/DTD/svg11.dtd"><svg t="1558663348587" class="icon" style="" viewBox="0 0 1024 1024" version="1.1" xmlns="http://www.w3.org/2000/svg" p-id="8729" xmlns:xlink="http://www.w3.org/1999/xlink" width="64" height="64"><defs><style type="text/css"></style></defs><path d="M911.36 710.144c-25.6-35.84-67.584-59.904-115.2-59.904-77.824 0-140.8 62.976-140.8 140.8 0 48.128 24.576 91.136 61.952 116.224 22.528 15.36 49.664 24.576 78.848 24.576 77.824 0 140.8-62.976 140.8-140.8 0-30.208-9.728-58.368-25.6-80.896z m-47.104 78.336l-50.688 50.688c-6.656 7.168-17.92 7.168-25.088 0l-50.176-50.688c-7.168-6.656-7.168-17.92 0-25.088 6.656-7.168 17.92-7.168 25.088 0l37.888 37.888 37.888-37.888c6.656-7.168 17.92-7.168 25.088 0 7.168 6.656 7.168 17.92 0 25.088z" p-id="8730" fill="#f4ea2a"></path><path d="M512 66.56c-246.272 0-445.44 199.68-445.44 445.44s199.168 445.44 445.44 445.44c57.856 0 112.64-10.752 163.328-30.72-37.376-33.28-60.928-81.92-60.928-135.68 0-100.352 81.408-181.76 181.76-181.76 52.736 0 99.84 22.528 133.12 58.368 17.92-48.64 28.16-100.864 28.16-155.648 0-245.76-199.168-445.44-445.44-445.44z m180.736 429.568h-140.8v73.216h140.8v48.128h-140.8V701.44H474.624v-83.968h-143.36v-48.128h143.36V496.128h-143.36v-48.128H450.56l-80.896-168.96H440.32L512 430.08c2.048-5.632 70.144-151.04 70.144-151.04h76.8l-84.992 168.96h118.784v48.128z" p-id="8731" fill="#f4ea2a"></path></svg>