<?xml version="1.0" standalone="no"?><!DOCTYPE svg PUBLIC "-//W3C//DTD SVG 1.1//EN" "http://www.w3.org/Graphics/SVG/1.1/DTD/svg11.dtd"><svg t="1559119955744" class="icon" style="" viewBox="0 0 1024 1024" version="1.1" xmlns="http://www.w3.org/2000/svg" p-id="7161" xmlns:xlink="http://www.w3.org/1999/xlink" width="64" height="64"><defs><style type="text/css"></style></defs><path d="M487.136729 301.19483c24.407899-10.112312 52.471049-4.565992 71.202669 14.097066l130.525776 130.466424c12.792351 12.791327 19.120476 29.43131 19.120476 46.136783 0 16.709567-6.327102 33.416064-19.120476 46.142923l-130.525776 130.461307c-18.668175 18.602683-46.794769 24.213471-71.202669 14.100136-24.344454-10.051937-40.402175-33.873482-40.402175-60.238966l0-45.096081L120.613008 577.264423c-36.028565 0-65.203024-29.238928-65.203024-65.269539 0-36.023448 29.173436-65.262376 65.203024-65.262376l326.120522 0 0-85.299735C446.733531 335.070358 462.792275 311.248813 487.136729 301.19483L487.136729 301.19483 487.136729 301.19483zM838.316997 55.151088 185.676863 55.151088c-71.790046 0-130.525776 58.734706-130.525776 130.525776l0 130.531915 65.262376 0L120.413464 185.676863c0-35.95898 29.303396-65.262376 65.262376-65.262376L838.316997 120.414487c35.960003 0 65.268516 29.303396 65.268516 65.262376L903.585513 838.315974c0 35.960003-29.308513 65.269539-65.268516 65.269539L185.676863 903.585513c-35.95898 0-65.262376-29.308513-65.262376-65.269539L120.414487 707.791222 55.151088 707.791222 55.151088 838.315974c0 71.792093 58.734706 130.531915 130.525776 130.531915L838.316997 968.847889c71.79107 0 130.531915-58.739822 130.531915-130.531915L968.848912 185.676863C968.847889 113.886817 910.108067 55.151088 838.316997 55.151088L838.316997 55.151088 838.316997 55.151088zM838.316997 55.151088" p-id="7162" fill="#FFFFFF"></path></svg>