<?xml version="1.0" standalone="no"?><!DOCTYPE svg PUBLIC "-//W3C//DTD SVG 1.1//EN" "http://www.w3.org/Graphics/SVG/1.1/DTD/svg11.dtd"><svg t="1550988210510" class="icon" style="" viewBox="0 0 1024 1024" version="1.1" xmlns="http://www.w3.org/2000/svg" p-id="8669" xmlns:xlink="http://www.w3.org/1999/xlink" width="60" height="60"><defs><style type="text/css"></style></defs><path d="M100.0448 911.22176l-12.3904-228.03968V177.51552l52.05504-17.35168 294.96832-12.3904L496.64 249.40032s57.0112 32.22016 64.44544 32.22016c7.43936 0 309.84704-14.8736 309.84704-14.8736l34.69824 86.7584 37.18144 64.44544-86.75328 493.26592H100.0448z" fill="#B0E5FF" p-id="8670"></path><path d="M936.30464 360.42752V301.86496c0-32.31232-26.24512-58.56256-58.56256-58.56256H526.3872V184.74496c0-32.31232-26.24512-58.56256-58.56256-58.56256H116.46464c-32.31232 0-58.56256 26.24512-58.56256 58.56256v702.72c0 1.36192 0.62976 2.51392 0.73216 3.75808h0.83456c2.09408 29.80352 25.51808 54.79936 57.09824 54.79936h725.93408c27.91936 0 52.07552-19.7632 57.51296-47.16032L993.72032 430.592c7.20896-36.28544-20.50048-70.06208-57.41568-70.16448zM116.46464 588.81024v-374.784a29.2352 29.2352 0 0 1 29.28128-29.28128h292.80256a29.2352 29.2352 0 0 1 29.28128 29.28128V272.5888a29.2352 29.2352 0 0 0 29.28128 29.28128h351.36a29.2352 29.2352 0 0 1 29.28128 29.28128v29.28128H210.26816c-27.92448 0-52.07552 19.7632-57.51296 47.16032l-36.29056 181.21728z m726.3488 275.54816c-2.92352 13.48608-14.9504 23.10656-28.75392 23.10656H152.12032c-18.5088 0-32.31232-16.83456-28.75904-35.03104l81.56672-410.02496a29.11744 29.11744 0 0 1 28.54912-23.424h669.88544c18.82624 0 32.83968 17.3568 28.86144 35.65568l-89.41056 409.71776z" fill="#138BE5" p-id="8671"></path></svg>