<?xml version="1.0" standalone="no"?><!DOCTYPE svg PUBLIC "-//W3C//DTD SVG 1.1//EN" "http://www.w3.org/Graphics/SVG/1.1/DTD/svg11.dtd"><svg t="1550988219795" class="icon" style="" viewBox="0 0 1204 1024" version="1.1" xmlns="http://www.w3.org/2000/svg" p-id="9415" xmlns:xlink="http://www.w3.org/1999/xlink" width="70.546875" height="60"><defs><style type="text/css"></style></defs><path d="M561.63235285 164.57352927h335.01838211c27.29779432 0 49.63235285 22.33455854 49.63235366 49.63235284v62.04044147c0 27.29779432-22.33455854 49.63235285-49.63235366 49.63235284H561.63235285c-27.29779432 0-49.63235285-22.33455854-49.63235285-49.63235284v-62.04044147c0-27.29779432 22.33455854-49.63235285 49.63235285-49.63235284z" fill="#AFFCFE" p-id="9416"></path><path d="M983.50735284 933.875H189.38970568c-54.59558862 0-99.26470568-44.66911789-99.26470568-99.26470568V189.38970568c0-54.59558862 44.66911789-99.26470568 99.26470568-99.26470568h285.38602928c68.24448496 18.61213211 54.59558862 53.35477927 99.2647065 99.26470568l31.02021992 49.63235286H983.50735284c54.59558862 0 99.26470568 44.66911789 99.26470569 99.2647065v496.32352928c0 54.59558862-44.66911789 99.26470568-99.26470569 99.26470568z" fill="#03a6fb" p-id="9417"></path></svg>