<?xml version="1.0" standalone="no"?><!DOCTYPE svg PUBLIC "-//W3C//DTD SVG 1.1//EN" "http://www.w3.org/Graphics/SVG/1.1/DTD/svg11.dtd"><svg t="1559120049727" class="icon" style="" viewBox="0 0 1024 1024" version="1.1" xmlns="http://www.w3.org/2000/svg" p-id="10011" xmlns:xlink="http://www.w3.org/1999/xlink" width="64" height="64"><defs><style type="text/css"></style></defs><path d="M837.632 316.68224c0-134.62016-109.52192-244.14208-244.14208-244.14208S349.34784 182.06208 349.34784 316.68224c0 84.9664 43.63776 159.91296 109.66528 203.66336a389.30944 389.30944 0 0 0-60.69248 27.60704c-51.84 29.2608-94.53568 69.51936-126.90432 119.65952-39.80288 61.66016-63.71328 138.15296-71.0656 227.35872a31.47776 31.47776 0 0 0 31.4112 34.06336 31.47776 31.47776 0 0 0 31.33952-28.89728c6.4256-78.04928 26.70592-144.30208 60.27264-196.93056 26.41408-41.41056 61.27616-74.76224 103.6032-99.1232 73.55392-42.33728 145.50528-43.264 146.22208-43.264 1.83296 0 3.63008-0.16384 5.38112-0.46592 4.93056 0.29696 9.89696 0.46592 14.90432 0.46592 134.62016 0 244.1472-109.52192 244.1472-244.13696z m-425.32864 0c0-99.90656 81.28-181.18656 181.18656-181.18656 99.90144 0 181.18144 81.28 181.18144 181.18656 0 99.90144-81.28 181.18656-181.18144 181.18656-99.90656-0.00512-181.18656-81.28512-181.18656-181.18656z" p-id="10012" fill="#FFFFFF"></path><path d="M300.7744 555.25376c14.38208 4.14208 30.09024 6.13376 41.86112-2.91328a31.47776 31.47776 0 0 0-13.99808-55.99744c-33.3824-5.5808-64.05632-26.0352-88.17152-49.02912-30.55104-29.12256-46.42304-71.94624-46.42304-113.83808 0-16.72192 3.46624-35.1488 8.18176-51.13344 17.10592-58.0096 71.68512-104.61696 131.4048-114.12992a31.49824 31.49824 0 0 0 26.1632-35.9936 31.4368 31.4368 0 0 0-35.9168-26.20416c-26.46016 4.12672-52.38784 12.89216-75.70944 26.0352a212.18816 212.18816 0 0 0-22.4256 14.63296c-2.41152 1.792-4.7872 3.62496-7.12192 5.51424-26.9824 21.70368-48.8448 49.87392-64.32768 80.768-15.36 30.64832-23.21408 66.18624-23.21408 100.5056 0 72.40192 33.7408 137.0624 86.31296 179.0976a331.87328 331.87328 0 0 0-61.056 31.59552c-61.52192 40.54528-136.85248 121.49248-146.30912 276.85376a31.48288 31.48288 0 0 0 62.83776 3.83488c6.32832-103.8848 46.07488-180.6336 118.1184-228.1216 52.85376-34.8416 104.81152-40.67328 105.3184-40.72448 1.536-0.14336 3.02592-0.39936 4.47488-0.75264zM946.176 644.9152c-1.92512 0-2.5088 0-4.3264 2.80576l-140.9024 180.44416-140.70784-180.93568c-1.42848-2.25792-1.8688-2.25792-3.91168-2.25792h-68.64896v31.7184h1.64864c12.97408 0 17.792 3.3792 23.1168 10.49088 0.52736 0.71168 1.13664 1.52576 2.36032 3.03616 30.94528 42.07616 152.22784 189.4656 186.45504 235.37664 34.2272-45.94176 155.42784-193.42848 186.78272-235.95008 0.75264-0.90112 1.35168-1.70496 1.8688-2.4064 5.36064-7.14752 10.18368-10.54208 23.10656-10.54208h1.5616v-31.77984H946.176z" p-id="10013" fill="#FFFFFF"></path></svg>