<?xml version="1.0" standalone="no"?><!DOCTYPE svg PUBLIC "-//W3C//DTD SVG 1.1//EN" "http://www.w3.org/Graphics/SVG/1.1/DTD/svg11.dtd"><svg t="1560163122737" class="icon" style="" viewBox="0 0 1024 1024" version="1.1" xmlns="http://www.w3.org/2000/svg" p-id="4125" xmlns:xlink="http://www.w3.org/1999/xlink" width="64" height="64"><defs><style type="text/css"></style></defs><path d="M856.576 830.976c1.024 3.072 1.536 6.144 1.536 10.24 0 18.944-15.36 34.816-34.304 34.816s-34.304-15.36-34.304-34.816H788.48c-9.216-144.896-129.024-260.096-276.48-260.096-146.944 0-267.264 114.688-276.48 260.096h-0.512c0 18.944-15.36 34.816-34.304 34.816s-34.304-15.36-34.304-34.816c0-3.584 0.512-6.144 1.536-9.216 10.24-131.584 93.184-242.688 208.896-292.352-53.76-39.424-89.088-102.912-89.088-175.104 0-119.808 96.768-216.576 216.576-216.576s216.576 96.768 216.576 216.576c0 69.12-32.768 131.072-83.456 170.496 120.32 47.104 208.896 160.768 219.136 295.936zM650.24 364.544c0-80.896-66.048-146.944-147.456-146.944s-147.456 66.048-147.456 146.944 66.048 146.944 147.456 146.944c81.92 0 147.456-65.536 147.456-146.944z" p-id="4126" fill="#ffffff"></path></svg>