<?xml version="1.0" standalone="no"?><!DOCTYPE svg PUBLIC "-//W3C//DTD SVG 1.1//EN" "http://www.w3.org/Graphics/SVG/1.1/DTD/svg11.dtd"><svg t="1558667908913" class="icon" style="" viewBox="0 0 1024 1024" version="1.1" xmlns="http://www.w3.org/2000/svg" p-id="19156" xmlns:xlink="http://www.w3.org/1999/xlink" width="64" height="64"><defs><style type="text/css"></style></defs><path d="M685 213.2v112.6H567.3V213.2H464.9v112.6H347.2V213.2H122v655.1h818.8V213.2H685zM363.8 423.1c45 0 81.4 36.5 81.4 81.4 0 45-36.4 81.4-81.4 81.4-45 0-81.4-36.5-81.4-81.4 0-44.9 36.4-81.4 81.4-81.4zM548 683.6c0 31.8-28 57.6-62.5 57.6H242.1c-34.5 0-62.5-25.8-62.5-57.6v-12c0-31.8 69.6-76.8 104.2-76.8h25.4c14.9 13.6 34.4 21.2 54.7 21.2 21.1 0 40.2-8.1 54.7-21.2H444c34.5 0 104.2 45 104.2 76.8v12h-0.2z m351.9 56.8H623.5V679h276.4v61.4z m0-102.4H623.5v-61.4h276.4V638z m0-102.4H623.5v-61.4h276.4v61.4z m0-102.3H623.5v-61.4h276.4v61.4z" p-id="19157" fill="#FFFFFF"></path><path d="M362.6 116h76.8v168.9h-76.8V116z m230.2 0h76.8v168.9h-76.8V116z" p-id="19158" fill="#FFFFFF"></path></svg>