<?xml version="1.0" standalone="no"?><!DOCTYPE svg PUBLIC "-//W3C//DTD SVG 1.1//EN" "http://www.w3.org/Graphics/SVG/1.1/DTD/svg11.dtd"><svg t="1559119999952" class="icon" style="" viewBox="0 0 1024 1024" version="1.1" xmlns="http://www.w3.org/2000/svg" p-id="8577" xmlns:xlink="http://www.w3.org/1999/xlink" width="64" height="64"><defs><style type="text/css"></style></defs><path d="M703.02472533 501.32225024c-181.96534499 0-318.76884935 128.57543111-318.76884935 192.09587598 0 63.52975986 136.21670002 192.30195712 318.76884935 192.30195712 187.32110279 0 318.76884935-130.92730766 318.76884936-192.30195712 0.04540757-63.52044487-129.97607765-192.09587598-318.76884936-192.09587598z m0.28175929 349.32344491c-84.83868786 0-153.6124325-70.34903552-153.61243249-157.12394696 0-86.77374635 68.77374464-157.12278187 153.61243249-157.12278072 84.86430151 0 153.63921123 70.34903552 153.64037519 157.12278072 0 86.77374635-68.77607253 157.12394581-153.64037519 157.12394696z" p-id="8578" fill="#FFFFFF"></path><path d="M703.02472533 593.20957952c-54.02678386 0-97.82523449 44.79159523-97.82523448 100.04903822 0 55.25162211 43.79845177 100.05136725 97.82523448 100.05136725 54.02794781 0 97.80893469-44.79974514 97.80893355-100.05136725 0-55.25744299-43.78098688-100.04903822-97.80893355-100.04903822z" p-id="8579" fill="#FFFFFF"></path><path d="M66.27176107 725.55383467V330.47825181h815.1660453v170.84399843h64.06649856V298.44500139c0-88.31527253-71.84981219-160.16624867-160.16624868-160.16624868h-622.96771015c-88.31527253 0-160.16624867 71.85097614-160.16624868 160.16624868v427.10883328c0 88.31527253 71.84981219 160.16624867 160.16624868 160.16624867h245.58708395v-64.06649969H162.37151005c-52.98706773 0-96.09974898-43.11268125-96.09974898-96.09974898z m738.99320547-507.37882681c16.71927694 0 30.27167118 13.55239424 30.27167119 30.27050723 0 16.71811299-13.55239424 30.27167118-30.27167119 30.27167118s-30.27050723-13.55355819-30.27050723-30.27167118c-0.00116395-16.71811299 13.55123029-30.27050723 30.27050723-30.27050723z m-79.499231 0c16.71811299 0 30.27050723 13.55239424 30.27050723 30.27050723 0 16.71811299-13.55239424 30.27167118-30.27050723 30.27167118-16.71694791 0-30.27167118-13.55355819-30.27167119-30.27167118s13.55355819-30.27050723 30.27167119-30.27050723z m-79.49922987 0c16.71694791 0 30.27050723 13.55239424 30.27050724 30.27050723 0 16.71811299-13.55355819 30.27167118-30.27050724 30.27167118-16.71927694 0-30.27167118-13.55355819-30.27167118-30.27167118s13.55239424-30.27050723 30.27167118-30.27050723z" p-id="8580" fill="#FFFFFF"></path><path d="M472.02509369 447.9335003c0-23.49081714-19.22018304-42.71100018-42.71100018-42.71099904H173.04925981c-23.49081714 0-42.71100018 19.22018304-42.71099904 42.71099904s19.22018304 42.71100018 42.71099904 42.71100018h256.2648337c23.49081714 0 42.71100018-19.22018304 42.71100018-42.71100018zM167.70980295 576.0664997c-20.55446528 0-37.37154219 16.81707805-37.37154218 37.37154219s16.81707805 37.37154219 37.37154218 37.37154332h96.09974898c20.55446528 0 37.37154219-16.81707805 37.37154332-37.37154332s-16.81707805-37.37154219-37.37154332-37.37154219h-96.09974898z" p-id="8581" fill="#FFFFFF"></path></svg>