<?xml version="1.0" standalone="no"?><!DOCTYPE svg PUBLIC "-//W3C//DTD SVG 1.1//EN" "http://www.w3.org/Graphics/SVG/1.1/DTD/svg11.dtd"><svg t="1551090317500" class="icon" style="" viewBox="0 0 1024 1024" version="1.1" xmlns="http://www.w3.org/2000/svg" p-id="41684" xmlns:xlink="http://www.w3.org/1999/xlink" width="60" height="60"><defs><style type="text/css"></style></defs><path d="M512 42.667C251.733 42.667 42.667 251.733 42.667 512S251.733 981.333 512 981.333c260.267 0 469.333-209.066 469.333-469.333S772.267 42.667 512 42.667z m234.667 113.066v14.934c0 44.8-4.267 87.466-12.8 130.133-29.867 6.4-51.2 32-51.2 61.867 0 17.066 6.4 34.133 19.2 44.8-14.934 34.133-29.867 68.266-51.2 100.266-78.934-89.6-134.4-202.666-153.6-328.533 49.066-29.867 102.4-53.333 157.866-68.267 32 10.667 64 25.6 91.734 44.8zM657.067 576c38.4 36.267 78.933 68.267 123.733 93.867-44.8 8.533-91.733 12.8-140.8 12.8-21.333 0-42.667-2.134-64-2.134 0-4.266 0-8.533-2.133-12.8C603.733 640 631.467 608 657.067 576zM512 85.333c23.467 0 46.933 2.134 70.4 6.4-29.867 12.8-59.733 25.6-89.6 40.534-2.133-14.934-2.133-29.867-2.133-44.8 6.4-2.134 14.933-2.134 21.333-2.134zM627.2 544c-23.467 32-49.067 59.733-76.8 87.467-10.667-8.534-23.467-12.8-38.4-12.8-27.733 0-51.2 17.066-59.733 42.666C366.933 640 285.867 608 213.333 563.2c19.2-72.533 51.2-140.8 91.734-200.533 4.266 0 8.533 2.133 14.933 2.133 36.267 0 64-27.733 64-64 0-8.533-2.133-17.067-4.267-25.6 25.6-25.6 51.2-46.933 78.934-68.267 23.466 128 83.2 243.2 168.533 337.067zM149.333 736c-38.4-64-61.866-136.533-64-215.467 25.6 21.334 51.2 42.667 78.934 59.734-8.534 46.933-14.934 96-14.934 145.066V736z m27.734-198.4c-32-21.333-59.734-44.8-87.467-70.4 21.333-192 170.667-345.6 360.533-375.467 0 23.467 2.134 44.8 4.267 68.267-36.267 25.6-70.4 53.333-102.4 83.2-10.667-6.4-21.333-8.533-32-8.533-36.267 0-64 27.733-64 64 0 14.933 6.4 27.733 14.933 40.533-42.666 59.733-74.666 125.867-93.866 198.4z m19.2 260.267C194.133 774.4 192 750.933 192 725.333c0-40.533 4.267-81.066 12.8-119.466 76.8 44.8 160 78.933 247.467 98.133 0 2.133 0 2.133 2.133 4.267-74.667 49.066-160 81.066-251.733 96-4.267-2.134-4.267-4.267-6.4-6.4zM512 938.667c-104.533 0-198.4-38.4-273.067-100.267 89.6-17.067 170.667-51.2 243.2-100.267 8.534 6.4 19.2 8.534 29.867 8.534 21.333 0 38.4-10.667 51.2-25.6 25.6 2.133 51.2 4.266 76.8 4.266 68.267 0 134.4-8.533 198.4-23.466 14.933 6.4 29.867 14.933 44.8 19.2C810.667 851.2 672 938.667 512 938.667z m330.667-281.6c-59.734-29.867-115.2-70.4-162.134-117.334C704 503.467 723.2 465.067 740.267 426.667h6.4c36.266 0 64-27.734 64-64 0-25.6-14.934-46.934-36.267-57.6 8.533-38.4 12.8-76.8 12.8-117.334C878.933 266.667 936.533 381.867 936.533 512c0 42.667-6.4 81.067-17.066 119.467-23.467 10.666-49.067 19.2-76.8 25.6z" p-id="41685"></path></svg>