<?xml version="1.0" standalone="no"?><!DOCTYPE svg PUBLIC "-//W3C//DTD SVG 1.1//EN" "http://www.w3.org/Graphics/SVG/1.1/DTD/svg11.dtd"><svg t="1551090258927" class="icon" style="" viewBox="0 0 1024 1024" version="1.1" xmlns="http://www.w3.org/2000/svg" p-id="38322" xmlns:xlink="http://www.w3.org/1999/xlink" width="60" height="60"><defs><style type="text/css"></style></defs><path d="M608 64 480 64c-53.013333 0-96 42.986667-96 96s42.986667 96 96 96l128 0c53.013333 0 96-42.986667 96-96S661.013333 64 608 64zM608 192 480 192c-17.6 0-32-14.4-32-32s14.4-32 32-32l128 0c17.6 0 32 14.4 32 32S625.6 192 608 192zM608 384 480 384c-53.013333 0-96 42.986667-96 96s42.986667 96 96 96l128 0c53.013333 0 96-42.986667 96-96S661.013333 384 608 384zM608 512 480 512c-17.6 0-32-14.4-32-32s14.4-32 32-32l128 0c17.6 0 32 14.4 32 32S625.6 512 608 512zM608 704 480 704c-53.013333 0-96 42.986667-96 96s42.986667 96 96 96l128 0c53.013333 0 96-42.986667 96-96S661.013333 704 608 704zM608 832 480 832c-17.6 0-32-14.4-32-32s14.4-32 32-32l128 0c17.6 0 32 14.4 32 32S625.6 832 608 832zM256 768c-34.24 0-66.346667-13.333333-90.56-37.44C141.333333 706.346667 128 674.24 128 640c0-34.24 13.333333-66.346667 37.44-90.56 24.213333-24.213333 56.32-37.44 90.56-37.44l64 0 0-64-64 0c-106.026667 0-192 85.973333-192 192l0 0c0 106.026667 85.973333 192 192 192l0 64 96-96-96-96L256 768zM832 128l-64 0 0 64 64 0c34.24 0 66.346667 13.333333 90.56 37.44 24.213333 24.213333 37.44 56.32 37.44 90.56 0 34.24-13.333333 66.346667-37.44 90.56C898.346667 434.666667 866.24 448 832 448l0-64-96 96 96 96 0-64c106.026667 0 192-85.973333 192-192l0 0C1024 213.973333 938.026667 128 832 128z" p-id="38323"></path></svg>