<?xml version="1.0" standalone="no"?><!DOCTYPE svg PUBLIC "-//W3C//DTD SVG 1.1//EN" "http://www.w3.org/Graphics/SVG/1.1/DTD/svg11.dtd"><svg t="1551090398033" class="icon" style="" viewBox="0 0 1024 1024" version="1.1" xmlns="http://www.w3.org/2000/svg" p-id="46129" xmlns:xlink="http://www.w3.org/1999/xlink" width="60" height="60"><defs><style type="text/css"></style></defs><path d="M859.2 183.488c22.08 12.096 36.8 36.288 36.8 62.976v346.368c0 24.192-14.72 48.448-36.8 60.544l-309.12 169.6c-22.144 12.032-51.584 12.032-73.6 0l-311.68-174.464A71.232 71.232 0 0 1 128 587.968V241.6c0-24.192 14.72-48.448 36.8-60.544L473.92 9.088c22.144-12.16 51.584-12.16 73.6 0l311.68 174.4zM412.096 358.016v22.336h89.408v48.192H359.04v35.136h142.4V561.28h-39.168a489.792 489.792 0 0 0-31.872-76.928l-34.688 12.352c11.456 20.288 21.248 41.856 28.992 64.576h-80v35.84h351.36v-35.84h-78.72c10.56-19.968 20.352-42.24 29.376-67.392l-35.136-12.352c-9.792 28.288-20.8 55.04-33.472 79.744h-38.336V463.68h142.016v-35.136H539.84v-48.192h89.344v-20.736c17.152 9.6 35.968 18.304 55.552 26.24l22.016-31.424c-75.904-30.72-132.608-68.992-170.56-115.2h-31.04c-44.032 46.976-101.184 85.696-171.776 115.968l22.4 31.488c19.648-8.768 38.4-18.304 56.32-28.672z m194.688-11.52H431.296c32.64-20.8 62.464-44.736 89.344-71.808 24.128 27.072 52.672 51.008 86.144 71.744z" fill="#FECD08" p-id="46130"></path><path d="M107.392 710.016L2.048 871.744c-5.312 10.112 0 22.784 13.12 22.784l142.208 7.552c5.312 0 7.936 2.56 10.56 5.056l86.912 111.168c7.872 7.616 21.12 7.616 26.304 0l100.096-159.168c5.248-7.616 2.624-15.168-5.248-20.224l-247.552-133.952a21.12 21.12 0 0 0-21.12 5.12zM916.608 711.68l105.344 160.832c5.312 10.048 0 22.656-13.12 22.656l-142.208 7.552c-5.312 0-7.936 2.496-10.56 4.992l-86.912 110.656c-7.872 7.488-21.12 7.488-26.304 0l-100.096-158.4c-5.248-7.552-2.624-15.104 5.248-20.096l247.552-133.248c7.936-5.056 15.808-2.56 21.12 4.992z" fill="#FECD08" p-id="46131"></path></svg>