<?xml version="1.0" standalone="no"?><!DOCTYPE svg PUBLIC "-//W3C//DTD SVG 1.1//EN" "http://www.w3.org/Graphics/SVG/1.1/DTD/svg11.dtd"><svg t="1551090359137" class="icon" style="" viewBox="0 0 1024 1024" version="1.1" xmlns="http://www.w3.org/2000/svg" p-id="42844" xmlns:xlink="http://www.w3.org/1999/xlink" width="60" height="60"><defs><style type="text/css"></style></defs><path d="M873.936 687.996c0-12.8 0-32-6.398-44.8-6.399-38.4-19.2-70.4-38.399-115.2-38.398-96-76.8-192-6.398-275.2v-12.8c0-6.398-6.398-6.398-6.398-6.398-115.2 19.199-160 128-179.2 192-51.199-96-76.8-204.801-76.8-352 0-6.399 0-6.399-6.399-6.399h-6.399c-89.6 51.2-108.8 140.801-128 230.399 0 83.199-19.199 140.8-57.601 198.398-19.2-70.398-76.801-108.8-134.399-147.2-12.8-6.398-32-19.198-44.8-32h-12.8c-6.402 0-6.4 6.4 0 12.802 25.6 70.398 19.198 153.601 6.398 230.398-12.801 134.399-32 268.8 121.601 358.399 32 12.8 64 25.6 96 32 6.399 0 6.399-6.4 6.399-6.4 0-6.397 0-6.397-6.399-6.397-57.601-38.399-51.2-102.399-44.8-166.399 6.398-32 6.398-70.398 0-102.398 32 19.199 57.6 38.398 64 76.8 0 6.399 6.398 6.399 6.398 6.399 6.398 0 6.398 0 12.8-6.398 25.602-32 38.399-70.399 38.399-121.602 6.398-38.398 12.8-76.8 44.8-102.398 0 57.601 6.399 121.601 44.802 185.601 0 6.399 6.398 6.399 6.398 6.399 6.398 0 6.398-6.399 6.398-6.399 6.398-19.199 19.2-70.398 57.602-89.601-19.2 44.8 0 89.601 12.8 134.398 6.399 19.2 12.802 38.398 19.2 57.602V828.8c6.398 38.398-19.2 76.8-76.801 108.8-6.399 0-6.399 6.399-6.399 12.801 0 6.399 6.399 6.399 6.399 6.399 6.399 0 12.8-6.399 25.601-6.399 198.395-64.007 268.794-153.605 262.395-262.406z" p-id="42845"></path></svg>