<?xml version="1.0" standalone="no"?><!DOCTYPE svg PUBLIC "-//W3C//DTD SVG 1.1//EN" "http://www.w3.org/Graphics/SVG/1.1/DTD/svg11.dtd"><svg t="1550916676831" class="icon" style="" viewBox="0 0 1399 1024" version="1.1" xmlns="http://www.w3.org/2000/svg" p-id="8667" xmlns:xlink="http://www.w3.org/1999/xlink" width="81.97265625" height="60"><defs><style type="text/css"></style></defs><path d="M950.956 505.818c-142.562 0-258.294 115.53-258.294 258.293 0 142.564 115.53 258.294 258.294 258.294 142.766 0 258.295-115.529 258.295-258.294 0-142.563-115.73-258.293-258.295-258.293z m-37.243 395.849h-60.067V681.22H833.62v-20.025h80.092V777.13l99.117-115.934 100.11 0.202-199.227 240.27zM641.61 536.656c51.253 0 99.312-14.016 140.153-38.244l7.815-4.806c74.883-47.655 124.337-130.547 124.337-224.858 0-147.966-121.941-267.9-272.305-267.9-150.37 0-272.31 119.934-272.31 267.9 0 147.969 121.74 267.908 272.31 267.908z m0 0" p-id="8668"></path><path d="M660.83 886.65c-16.42-38.842-24.832-80.092-24.832-122.54 0-42.445 8.412-83.696 24.832-122.537 9.807-23.428 22.427-45.252 37.443-65.472h-158.78c-194.219 0-351.8 154.976-351.8 345.986v22.226c0 78.092 157.581 78.092 351.8 78.092h231.06c-15.017-10.613-29.235-22.427-42.245-35.443-29.034-29.034-51.662-62.667-67.478-100.312z m0 0" p-id="8669"></path></svg>