<?xml version="1.0" standalone="no"?><!DOCTYPE svg PUBLIC "-//W3C//DTD SVG 1.1//EN" "http://www.w3.org/Graphics/SVG/1.1/DTD/svg11.dtd"><svg t="1542698477280" class="icon" style="" viewBox="0 0 1024 1024" version="1.1" xmlns="http://www.w3.org/2000/svg" p-id="1705" xmlns:xlink="http://www.w3.org/1999/xlink" width="40" height="40"><defs><style type="text/css"></style></defs><path d="M34.402 229.007H989.6c24.431 0 34.4-12.369 34.4-27.5s-9.756-27.5-34.4-27.5H34.402C9.97 174.007 0 186.376 0 201.507s9.97 27.5 34.402 27.5zM989.6 484.607H34.402C9.97 484.607 0 496.974 0 512.107c0 15.131 9.97 27.5 34.402 27.5H989.6c24.431 0 34.4-12.369 34.4-27.5 0-15.133-9.969-27.5-34.4-27.5zM989.6 794.993H34.402C9.97 794.993 0 807.23 0 822.493s9.97 27.5 34.402 27.5H989.6c24.431 0 34.4-12.237 34.4-27.5s-9.969-27.5-34.4-27.5z" fill="" p-id="1706"></path></svg>