<?xml version="1.0" standalone="no"?><!DOCTYPE svg PUBLIC "-//W3C//DTD SVG 1.1//EN" "http://www.w3.org/Graphics/SVG/1.1/DTD/svg11.dtd"><svg t="1550633419271" class="icon" style="" viewBox="0 0 1485 1024" version="1.1" xmlns="http://www.w3.org/2000/svg" p-id="1959" xmlns:xlink="http://www.w3.org/1999/xlink" width="87.01171875" height="60"><defs><style type="text/css"></style></defs><path d="M1243.624665 633.44377L1082.518414 363.825596c-3.034288-6.357556-8.380415-10.258784-14.593481-10.258784h-666.67645c-6.068576 0-11.559193 3.178778-14.593481 10.258784l-161.106251 269.618174c-1.589389 1.589389-1.589389 3.178778-1.589389 6.357556v329.870467c0 10.258784 6.068576 16.61634 16.18287 16.61634h989.755891c9.969804 0 16.18287-6.357556 16.18287-16.61634V639.801326c-0.866939-2.456328-0.866939-4.045718-2.456328-6.357556z m-832.406378-245.921828H1058.822069L1203.889939 623.762946H847.722308c-9.969804 0-16.18287 6.357556-16.18287 16.61634 0 54.761676-43.780443 99.842529-96.66375 99.842529s-96.663751-45.225342-96.663751-99.842529c0-10.258784-6.068576-16.61634-16.18287-16.61634h-356.74559l145.93481-236.241004z m801.774517 566.255961h-956.812192V657.140116h351.399464c8.380415 65.02046 62.853111 116.603358 127.295612 116.603358s119.637646-51.582898 127.295612-116.603358H1213.715253v296.493297h-0.722449z m-1063.445746-157.060533v-18.205729c0-4.768167-3.901228-8.669395-8.380415-8.669395s-8.380415 3.901228-8.380415 8.669395v18.205729h-17.627769c-4.623677 0-8.380415 3.901228-8.380415 8.669394s3.901228 8.669395 8.380415 8.669395h17.627769v18.205729c0 4.768167 3.901228 8.669395 8.380415 8.669395 4.623677 0 8.380415-3.901228 8.380415-8.669395v-18.205729h17.627769c4.623677 0 8.380415-3.901228 8.380415-8.669395s-3.901228-8.669395-8.380415-8.669394h-17.627769zM1306.622266 435.926062h26.875124c6.935516 0 13.004092 6.357556 13.004092 13.437562 0 7.946945-5.346127 13.437562-13.004092 13.437561h-26.875124v27.742063c0 7.080006-6.068576 13.437562-13.004092 13.437562s-13.004092-5.490617-13.004092-13.437562v-27.742063h-26.875123c-6.935516 0-13.004092-6.357556-13.004092-13.437561 0-7.946945 5.346127-13.437562 13.004092-13.437562h26.875123v-27.742063c0-7.080006 6.068576-13.437562 13.004092-13.437562 7.657965 0 13.004092 5.490617 13.004092 13.437562V435.926062z m94.351912 118.192747h16.90532c4.623677 0 8.380415 3.901228 8.380415 8.669395s-3.901228 8.669395-8.380415 8.669394h-16.90532v17.48328c0 4.768167-3.901228 8.669395-8.380415 8.669394-4.623677 0-8.380415-3.901228-8.380415-7.946945v-17.483279h-16.905319c-4.623677 0-8.380415-3.901228-8.380415-8.669395s3.901228-8.669395 8.380415-8.669394H1384.213348v-18.205729c0-4.768167 3.901228-8.669395 8.380415-8.669395 4.623677 0 8.380415 3.901228 8.380415 8.669395v17.483279z m-1229.175674-140.299704v-27.742063c0-7.946945-6.068576-13.437562-13.004092-13.437561-7.657965 0-13.004092 6.357556-13.004092 13.437561v27.019614h-26.152674c-7.657965 0-13.004092 6.357556-13.004092 13.437562 0 7.946945 6.068576 13.437562 13.004092 13.437561h26.152674v27.019614c0 7.946945 6.068576 13.437562 13.004092 13.437561 7.657965 0 13.004092-6.357556 13.004092-13.437561v-27.019614h26.152674c7.657965 0 13.004092-6.357556 13.004092-13.437561 0-7.946945-6.068576-13.437562-13.004092-13.437562 0 0.72245-26.152674 0.72245-26.152674 0.722449z m-118.915197 270.340624c-29.186962 0-52.883307-24.563285-52.883307-54.761676s23.840835-54.761676 52.883307-54.761677c29.186962 0 52.883307 24.563285 52.883308 54.761677 0.14449 30.920841-23.696345 54.761676-52.883308 54.761676z m0-27.019613c14.593481 0 26.152674-11.848173 26.152674-27.019614 0-15.026951-11.559193-27.019613-26.152674-27.019613-14.593481 0-26.152674 11.848173-26.152673 27.019613 0.14449 15.171441 11.559193 27.019613 26.152673 27.019614zM1460.793001 505.714689c-13.004092 0-24.563285-11.125723-24.563285-25.430224 0-14.304501 10.692253-25.430224 24.563285-25.430225 13.004092 0 24.563285 11.125723 24.563285 25.430225 0 14.304501-10.692253 25.430224-24.563285 25.430224z m0-11.848173c6.935516 0 12.281642-5.490617 12.281643-12.715112s-5.346127-12.715112-12.281643-12.715112-12.281642 5.490617-12.281642 12.715112c0 7.080006 6.213066 12.715112 12.281642 12.715112zM393.590518 94.929872c10.692253-11.125723 28.320023-11.125723 39.156766 0l98.253139 100.709468c10.692253 11.125723 10.692253 29.331452 0 40.457175-10.692253 11.125723-28.320023 11.125723-39.156766 0l-98.253139-100.709468c-10.692253-11.125723-10.692253-29.331452 0-40.457175z m341.42966-50.715959c15.315931 0 27.597573 12.715112 27.597573 28.609002v142.756032c0 15.89389-12.281642 28.609002-27.597573 28.609003-15.315931 0-27.597573-12.715112-27.597573-28.609003V72.822915c-0.866939-15.171441 12.281642-28.609002 27.597573-28.609002-0.72245 0 0 0 0 0zM1077.172287 87.849866c10.692253 11.125723 10.692253 29.331452 0 40.457175l-97.3862 100.709468c-10.692253 11.125723-28.320023 11.125723-39.156766 0-10.692253-11.125723-10.692253-29.331452 0-40.457175l97.3862-100.709468c10.836743-11.125723 28.464512-11.125723 39.156766 0z" p-id="1960"></path></svg>