<?xml version="1.0" standalone="no"?><!DOCTYPE svg PUBLIC "-//W3C//DTD SVG 1.1//EN" "http://www.w3.org/Graphics/SVG/1.1/DTD/svg11.dtd"><svg t="1555904162237" class="icon" style="" viewBox="0 0 1024 1024" version="1.1" xmlns="http://www.w3.org/2000/svg" p-id="23818" xmlns:xlink="http://www.w3.org/1999/xlink" width="120" height="120"><defs><style type="text/css"></style></defs><path d="M176.872727 744.727273L232.727273 637.672727c18.618182-37.236364 55.854545-60.509091 97.745454-60.509091h144.290909V512c-125.672727-18.618182-218.763636-125.672727-218.763636-251.345455C256 116.363636 372.363636 0 512 0s256 116.363636 256 256c0 130.327273-97.745455 242.036364-228.072727 256v65.163636H698.181818c41.890909 0 83.781818 23.272727 102.4 60.509091l55.854546 107.054546c9.309091 0 13.963636-4.654545 23.272727-4.654546 55.854545 0 97.745455 46.545455 97.745454 102.4 0 55.854545-46.545455 102.4-97.745454 102.4-55.854545 0-97.745455-46.545455-97.745455-102.4 0-23.272727 9.309091-41.890909 18.618182-60.509091L744.727273 665.6c-9.309091-13.963636-23.272727-23.272727-41.890909-23.272727h-158.254546v107.054545c60.509091 9.309091 107.054545 65.163636 107.054546 134.981818 0 79.127273-60.509091 139.636364-139.636364 139.636364s-139.636364-60.509091-139.636364-139.636364c0-65.163636 41.890909-116.363636 102.4-134.981818v-107.054545H330.472727c-18.618182 0-32.581818 9.309091-41.890909 23.272727l-60.509091 121.018182c9.309091 13.963636 18.618182 37.236364 18.618182 55.854545 0 55.854545-46.545455 102.4-97.745454 102.4S46.545455 898.327273 46.545455 842.472727C46.545455 786.618182 93.090909 744.727273 144.290909 744.727273h32.581818z" p-id="23819"></path></svg>