<?xml version="1.0" standalone="no"?><!DOCTYPE svg PUBLIC "-//W3C//DTD SVG 1.1//EN" "http://www.w3.org/Graphics/SVG/1.1/DTD/svg11.dtd"><svg t="1548640655748" class="icon" style="" viewBox="0 0 1024 1024" version="1.1" xmlns="http://www.w3.org/2000/svg" p-id="2564" xmlns:xlink="http://www.w3.org/1999/xlink" width="60" height="60"><defs><style type="text/css"></style></defs><path d="M767.6032 390.2912l-68.3904 0c0-109.888-83.9552-193.8752-190.9568-193.8752-107.1488 0-190.9568 83.9872-190.9568 193.8752L248.768 390.2912C248.768 258.3936 365.0432 128 508.1088 128 651.1744 128 767.6032 258.3936 767.6032 390.2912L767.6032 390.2912M854.4 502.72c0-37.728-30.6752-68.416-68.3904-68.416L237.9904 434.304c-37.7152 0-68.3904 30.688-68.3904 68.416l0 324.864c0 37.728 30.6752 68.416 68.3904 68.416l547.872 0c37.7088 0 68.3904-30.688 68.3904-68.416L854.2528 502.72 854.4 502.72M566.176 756.7744c0 28.2944-22.8992 51.3472-51.328 51.3472l-7.3344 0c-28.2816 0-51.328-22.9056-51.328-51.3472L456.1856 617.5424c0-28.2944 22.8992-51.3472 51.328-51.3472l7.3344 0c28.2816 0 51.328 22.9056 51.328 51.3472L566.176 756.7744 566.176 756.7744M566.176 756.7744 566.176 756.7744z" p-id="2565"></path></svg>