<?xml version="1.0" standalone="no"?><!DOCTYPE svg PUBLIC "-//W3C//DTD SVG 1.1//EN" "http://www.w3.org/Graphics/SVG/1.1/DTD/svg11.dtd"><svg t="1555813608003" class="icon" style="" viewBox="0 0 1024 1024" version="1.1" xmlns="http://www.w3.org/2000/svg" p-id="5312" xmlns:xlink="http://www.w3.org/1999/xlink" width="120" height="120"><defs><style type="text/css"></style></defs><path d="M509.619822 1023.988285c-68.240016 0-134.449027-13.370662-196.79371-39.740049-60.203854-25.464441-114.267835-61.91271-160.689555-108.33443S69.265103 775.428105 43.800662 715.22425C17.432739 652.881032 4.062077 586.672021 4.062077 518.432004s13.370662-134.449027 39.738585-196.79371c25.465905-60.203854 61.914175-114.267835 108.335895-160.689555S252.622257 78.077286 312.826112 52.612845C375.170795 26.244921 441.379806 12.874259 509.619822 12.874259s134.449027 13.370662 196.792246 39.738586c60.203854 25.465905 114.267835 61.914175 160.689555 108.335894s82.871453 100.485701 108.335895 160.689555c26.367923 62.343219 39.738585 128.553694 39.738585 196.79371s-13.370662 134.449027-39.738585 196.792246c-25.465905 60.203854-61.914175 114.267835-108.335895 160.689556s-100.485701 82.871453-160.689555 108.33443c-62.343219 26.369388-128.55223 39.74005-196.792246 39.740049z m0-964.25594C256.691589 59.732345 50.920163 265.503772 50.920163 518.432004s205.771427 458.698195 458.699659 458.698196 458.698195-205.769962 458.698195-458.698196S762.546591 59.732345 509.619822 59.732345z" p-id="5313"></path><path d="M513.92198 714.048405c-105.489266 0-191.311314-85.822049-191.311314-191.311314 0-105.49073 85.822049-191.314243 191.311314-191.314243 105.49073 0 191.312779 85.823513 191.312779 191.314243 0.001464 105.487801-85.822049 191.311314-191.312779 191.311314z m0-335.768935c-79.652889 0-144.453228 64.803268-144.453228 144.456157 0 79.652889 64.801804 144.453228 144.453228 144.453228 79.652889 0 144.454693-64.801804 144.454693-144.453228 0.001464-79.652889-64.80034-144.456157-144.454693-144.456157z" p-id="5314"></path><path d="M683.104563 557.896763c-12.940153 0-23.429043-10.48889-23.429043-23.429043V78.485829c0-12.940153 10.48889-23.429043 23.429043-23.429042s23.429043 10.48889 23.429043 23.429042v455.981891c0 12.940153-10.490354 23.429043-23.429043 23.429043z" p-id="5315"></path><path d="M629.775669 669.303326a23.351434 23.351434 0 0 1-16.6888-6.984783c-9.081683-9.2164-8.973323-24.049913 0.243076-33.13306l321.442076-316.775303c9.2164-9.081683 24.051377-8.971859 33.133059 0.243076 9.081683 9.2164 8.973323 24.049913-0.243076 33.13306l-321.442076 316.775303a23.355827 23.355827 0 0 1-16.444259 6.741707zM696.653872 977.352776a23.358756 23.358756 0 0 1-16.530654-6.826638L345.900599 637.740013c-9.169542-9.128541-9.201757-23.963518-0.071752-33.13306 9.128541-9.168077 23.963518-9.198828 33.13306-0.071752L713.18599 937.321327c9.169542 9.128541 9.201757 23.963518 0.071752 33.13306a23.357291 23.357291 0 0 1-16.60387 6.898389zM654.531381 435.881236a23.352899 23.352899 0 0 1-16.530654-6.826637L306.746275 99.23664c-9.169542-9.128541-9.201757-23.963518-0.071751-33.13306 9.130005-9.168077 23.964982-9.203221 33.133059-0.071751l331.254452 329.817959c9.169542 9.128541 9.201757 23.963518 0.071752 33.133059a23.355827 23.355827 0 0 1-16.602406 6.898389z" p-id="5316"></path><path d="M946.348897 714.187515H535.129657c-12.940153 0-23.429043-10.48889-23.429043-23.429043s10.48889-23.429043 23.429043-23.429043H946.348897c12.940153 0 23.429043 10.48889 23.429043 23.429043s-10.48889 23.429043-23.429043 23.429043zM344.490463 984.896927c-12.940153 0-23.429043-10.48889-23.429043-23.429043V514.230884c0-12.940153 10.48889-23.429043 23.429043-23.429043s23.429043 10.48889 23.429043 23.429043v447.237c0 12.940153-10.48889 23.429043-23.429043 23.429043z" p-id="5317"></path><path d="M74.725535 750.118881a23.345577 23.345577 0 0 1-16.565798-6.863245c-9.150506-9.149041-9.150506-23.984018 0-33.13306l304.390126-304.388661c9.150506-9.149041 23.985483-9.150506 33.133059 0 9.150506 9.149041 9.150506 23.984018 0 33.13306L91.291332 743.255636a23.355827 23.355827 0 0 1-16.565797 6.863245zM499.669801 378.444937H69.19628c-12.940153 0-23.429043-10.48889-23.429042-23.429043s10.48889-23.429043 23.429042-23.429043h430.473521c12.940153 0 23.429043 10.48889 23.429042 23.429043s-10.48889 23.429043-23.429042 23.429043z" p-id="5318"></path></svg>