<?xml version="1.0" standalone="no"?><!DOCTYPE svg PUBLIC "-//W3C//DTD SVG 1.1//EN" "http://www.w3.org/Graphics/SVG/1.1/DTD/svg11.dtd"><svg t="1558666360873" class="icon" style="" viewBox="0 0 1024 1024" version="1.1" xmlns="http://www.w3.org/2000/svg" p-id="11492" xmlns:xlink="http://www.w3.org/1999/xlink" width="64" height="64"><defs><style type="text/css"></style></defs><path d="M841.955556 263.964444l68.266666 170.666667a96.142222 96.142222 0 0 1-97.28 94.435556 95.004444 95.004444 0 0 1-97.28-93.297778 96.142222 96.142222 0 0 1-191.715555 0A96.142222 96.142222 0 0 1 425.528889 529.066667 94.435556 94.435556 0 0 1 329.955556 435.768889 96.142222 96.142222 0 0 1 232.106667 529.066667 94.435556 94.435556 0 0 1 136.533333 435.768889l66.56-170.666667zM246.328889 234.951111a32.995556 32.995556 0 0 1-32.426667-33.564444 29.582222 29.582222 0 0 1 32.426667-30.72H796.444444a32.426667 32.426667 0 1 1 0 64.284444zM625.777778 760.035556h15.36a60.302222 60.302222 0 0 1-15.36 0z m-132.551111 89.315555a95.004444 95.004444 0 0 1 10.808889-62.008889 78.506667 78.506667 0 0 1 38.684444-31.857778 14.222222 14.222222 0 0 0 4.551111-24.462222 53.475556 53.475556 0 0 1-22.186667-43.804444 56.888889 56.888889 0 0 1 30.151112-46.08 14.222222 14.222222 0 1 0-15.928889-22.755556 84.764444 84.764444 0 0 0-42.097778 69.404445A79.075556 79.075556 0 0 0 512 739.555556a113.777778 113.777778 0 0 0-33.564444 32.995555 119.466667 119.466667 0 0 0-15.928889 78.506667H244.622222a48.924444 48.924444 0 0 1-41.528889-42.666667v-236.657778a91.022222 91.022222 0 0 0 29.582223 4.551111A105.813333 105.813333 0 0 0 329.955556 512a102.968889 102.968889 0 0 0 96.142222 64.284444A105.813333 105.813333 0 0 0 523.377778 512a105.244444 105.244444 0 0 0 193.422222 0 105.244444 105.244444 0 0 0 97.28 64.284444 191.715556 191.715556 0 0 0 29.582222-2.844444v233.244444a51.2 51.2 0 0 1-24.462222 38.684445 108.088889 108.088889 0 0 0-50.062222-105.813333 79.075556 79.075556 0 0 0 17.635555-50.631112 84.764444 84.764444 0 0 0-42.097777-69.404444 14.222222 14.222222 0 0 0-15.928889 22.755556 56.888889 56.888889 0 0 1 30.151111 46.08 53.475556 53.475556 0 0 1-22.186667 43.804444 14.222222 14.222222 0 0 0 4.551111 24.462222 78.506667 78.506667 0 0 1 38.684445 31.857778 95.004444 95.004444 0 0 1 10.808889 62.008889h-20.48A197.404444 197.404444 0 0 0 739.555556 779.377778a89.315556 89.315556 0 0 0-46.08-34.702222 84.195556 84.195556 0 1 0-97.28 0l6.826666 3.982222-6.826666-3.982222a91.591111 91.591111 0 0 0-56.888889 39.822222A139.377778 139.377778 0 0 0 512 849.351111z" p-id="11493" fill="#FFFFFF"></path></svg>