<?xml version="1.0" standalone="no"?><!DOCTYPE svg PUBLIC "-//W3C//DTD SVG 1.1//EN" "http://www.w3.org/Graphics/SVG/1.1/DTD/svg11.dtd"><svg t="1551090693390" class="icon" style="" viewBox="0 0 1024 1024" version="1.1" xmlns="http://www.w3.org/2000/svg" p-id="65318" xmlns:xlink="http://www.w3.org/1999/xlink" width="60" height="60"><defs><style type="text/css"></style></defs><path d="M13.928107 565.930667c50.039467 90.9312 114.5856 175.104 192 252.552533 78.472533 78.506667 162.167467 141.824 252.416 192.1024 14.5408 8.0896 33.006933 13.4144 53.6576 13.4144 20.138667 0 38.536533-4.949333 53.691733-13.4144 89.088-49.902933 174.1824-113.902933 252.893867-192.1024 77.687467-77.2096 142.370133-162.2016 193.024-255.112533 8.192-15.018667 12.3904-32.017067 12.3904-51.131734 0-18.568533-4.266667-35.5328-12.9024-51.0976a1138.858667 1138.858667 0 0 0-192.512-255.112533c-78.711467-78.7456-164.522667-143.325867-257.024-194.1504C548.79744 4.881067 530.57024 0 512.001707 0c-20.650667 0-27.989333 6.007467-43.861334 14.984533-90.453333 50.926933-185.173333 114.244267-262.212266 191.044267a1154.423467 1154.423467 0 0 0-192.512 254.0544A104.823467 104.823467 0 0 0 0.001707 512.238933c0 20.138667 5.12 37.717333 13.9264 53.725867z" p-id="65319"></path></svg>