<?xml version="1.0" standalone="no"?><!DOCTYPE svg PUBLIC "-//W3C//DTD SVG 1.1//EN" "http://www.w3.org/Graphics/SVG/1.1/DTD/svg11.dtd"><svg t="1550918375289" class="icon" style="" viewBox="0 0 1087 1024" version="1.1" xmlns="http://www.w3.org/2000/svg" p-id="2318" xmlns:xlink="http://www.w3.org/1999/xlink" width="63.69140625" height="60"><defs><style type="text/css"></style></defs><path d="M15.711686 1024zM15.711686 178.492061zM879.854416 894.287244c-54.808207 0-99.020161-42.750401-99.020161-95.366281 0-52.615879 44.394648-95.36628 99.020161-95.36628 2.74041 0 5.480821 0.548082 8.221231 0.730776-48.779304-121.308831-165.520785-209.732739-305.464407-221.973238v226.905977c38.365745 13.15397 66.135236 48.048528 66.135236 89.520071 0 52.615879-44.394648 95.36628-99.202854 95.366281-54.808207 0-99.020161-42.750401-99.020161-95.366281 0-41.471543 27.586798-76.366102 66.135237-89.520071V482.312221c-139.943622 12.2405-256.685103 100.664407-305.464407 221.973238 2.74041-0.182694 5.298127-0.730776 8.221231-0.730776 54.808207 0 99.020161 42.750401 99.02016 95.36628 0 52.615879-44.394648 95.36628-99.02016 95.366281-54.808207 0-99.202855-42.750401-99.202855-95.366281 0-36.356111 21.192507-67.414095 52.250491-83.491168 47.68314-144.510972 181.780553-251.935058 344.19554-264.72364v-100.116324c-75.452632-14.798216-132.087779-78.923818-132.087779-155.838002 0-87.875825 73.991079-159.126494 165.155397-159.126494 91.164318 0 165.155397 71.250669 165.155397 159.126494 0 76.914184-56.817841 141.039786-132.087779 155.838002v100.116324c162.414987 12.971276 296.5124 120.212667 344.19554 264.72364 30.87529 16.077074 52.250491 47.317752 52.25049 83.491168-0.365388 52.615879-44.577342 95.36628-99.385548 95.366281z" p-id="2319"></path></svg>