<?xml version="1.0" standalone="no"?><!DOCTYPE svg PUBLIC "-//W3C//DTD SVG 1.1//EN" "http://www.w3.org/Graphics/SVG/1.1/DTD/svg11.dtd"><svg t="1550912107903" class="icon" style="" viewBox="0 0 1024 1024" version="1.1" xmlns="http://www.w3.org/2000/svg" p-id="1761" xmlns:xlink="http://www.w3.org/1999/xlink" width="60" height="60"><defs><style type="text/css"></style></defs><path d="M966.572 349.279L835.58 123.087c-8.545-14.734-27.552-25.841-44.22-25.841H239.059c-16.669 0-35.675 11.107-44.204 25.841L63.86 349.28c-2.788 4.827-5.41 9.399-7.375 12.876a431.968 431.968 0 0 0-2.294 4.153c-1.229 2.279-4.96 9.219-0.674 16.998l4.436 8.004h1.813a1258.07 1258.07 0 0 1 8.29 10.538l422.658 542.006a34.166 34.166 0 0 0 9.19 8.243l4.166 2.129c3.629 1.529 7.51 2.338 11.468 2.338s7.84-0.81 11.467-2.338l4.166-2.129c3.433-2.083 6.55-4.856 9.189-8.243l422.657-542.006c11.111-14.27 12.64-36.86 3.555-52.569z m-29.782 10.389H719.68L813.86 147.4l122.93 212.267zM515.374 140.236l150.69 219.432h-301.38l150.69-219.432zM337.869 343.883l-95.394-215.009h243.04l-147.646 215.01z m207.365-215.01h243.038L692.88 343.882 545.234 128.873zM674.638 391.31L515.524 898.913 356.111 391.31h318.527zM216.754 147.101l94.314 212.567H93.645L216.754 147.1zM99.28 391.31h224.513l151.394 482.062L99.28 391.31z m607.674 0h224.842L555.816 873.461l151.14-482.152z m0 0" fill="" p-id="1762"></path></svg>