<?xml version="1.0" standalone="no"?><!DOCTYPE svg PUBLIC "-//W3C//DTD SVG 1.1//EN" "http://www.w3.org/Graphics/SVG/1.1/DTD/svg11.dtd"><svg t="1559294944191" class="icon" style="" viewBox="0 0 1024 1024" version="1.1" xmlns="http://www.w3.org/2000/svg" p-id="1456" xmlns:xlink="http://www.w3.org/1999/xlink" width="64" height="64"><defs><style type="text/css"></style></defs><path d="M875.8 958.4H148.3c-46.5 0-84.3-37.7-84.3-84.1V373.9c0-11.8 6.4-22.6 16.8-28.1 10.3-5.6 22.9-5.1 32.7 1.4L512 607.7 910.5 347c9.8-6.4 22.4-6.9 32.7-1.4 10.3 5.6 16.8 16.4 16.8 28.1v500.5c0 46.5-37.8 84.2-84.2 84.2zM128 433v441.3c0 11.1 9.1 20.1 20.3 20.1h727.5c11.2 0 20.3-9 20.3-20.1V433L529.5 672.8c-10.6 7-24.4 7-35 0L128 433z" p-id="1457" fill="#FFFFFF"></path><path d="M200.4 474.2c-17.7 0-32-14.3-32-32V178.5c0-62.2 50.8-112.9 113.2-112.9h460.8c62.4 0 113.2 50.6 113.2 112.9v263.7c0 17.7-14.3 32-32 32s-32-14.3-32-32V178.5c0-26.9-22.1-48.9-49.2-48.9H281.6c-27.1 0-49.2 21.9-49.2 48.9v263.7c0 17.7-14.3 32-32 32z" p-id="1458" fill="#FFFFFF"></path><path d="M671.8 275.7H352.2c-17.7 0-32-14.3-32-32s14.3-32 32-32h319.6c17.7 0 32 14.3 32 32s-14.3 32-32 32zM614.3 405.9H409.7c-17.7 0-32-14.3-32-32s14.3-32 32-32h204.6c17.7 0 32 14.3 32 32 0 17.6-14.3 32-32 32z" p-id="1459" fill="#FFFFFF"></path></svg>