<?xml version="1.0" standalone="no"?><!DOCTYPE svg PUBLIC "-//W3C//DTD SVG 1.1//EN" "http://www.w3.org/Graphics/SVG/1.1/DTD/svg11.dtd"><svg t="1559119914778" class="icon" style="" viewBox="0 0 1024 1024" version="1.1" xmlns="http://www.w3.org/2000/svg" p-id="6370" xmlns:xlink="http://www.w3.org/1999/xlink" width="64" height="64"><defs><style type="text/css"></style></defs><path d="M845.813 91.92h-59.65c-10.882-36.861-45.033-63.84-85.373-63.84H323.21c-40.34 0-74.491 26.98-85.372 63.841h-59.651C113.019 91.92 60 144.939 60 210.108v667.625c0 65.169 53.019 118.188 118.187 118.188h667.625c65.169 0 118.188-53.019 118.188-118.188V210.108c0-65.169-53.019-118.188-118.187-118.188zM294.21 117.08c0-15.991 13.009-29 29-29h377.58c15.99 0 29 13.009 29 29v9.682c0 15.991-13.01 29-29 29H323.21c-15.99 0-29-13.009-29-29v-9.682zM904 877.733c0 32.085-26.103 58.188-58.188 58.188H178.187c-32.084 0-58.187-26.103-58.187-58.188V210.108c0-32.084 26.103-58.188 58.187-58.188h59.65c10.881 36.861 45.033 63.841 85.373 63.841h377.58c40.34 0 74.492-26.98 85.373-63.841h59.649c32.085 0 58.188 26.103 58.188 58.188v667.625z" p-id="6371" fill="#FFFFFF"></path><path d="M425.954 651.898L318.449 544.394l-42.427 42.425 149.932 149.933 322.024-322.023-42.426-42.427z" p-id="6372" fill="#FFFFFF"></path></svg>