<?xml version="1.0" standalone="no"?><!DOCTYPE svg PUBLIC "-//W3C//DTD SVG 1.1//EN" "http://www.w3.org/Graphics/SVG/1.1/DTD/svg11.dtd"><svg t="1560324277367" class="icon" style="" viewBox="0 0 1024 1024" version="1.1" xmlns="http://www.w3.org/2000/svg" p-id="4650" xmlns:xlink="http://www.w3.org/1999/xlink" width="64" height="64"><defs><style type="text/css"></style></defs><path d="M457.26963856 956.04751953H162.82195156c-44.09337217 0-63.77657344-20.03334698-63.77657344-64.92705292V126.87703174c0-44.89370597 19.68320127-64.92705293 63.77657344-64.92705293h606.55273066c44.09337217 0 63.75156327 20.03334698 63.75156328 64.92705293V518.94039218l-51.42142529-27.66152636V126.87703174c0-6.25260498-0.42517705-9.85410615-0.77532363-11.77990751a62.10087539 62.10087539 0 0 0-11.55481436-0.8003338H162.82195156c-6.15256349 0-9.67903329 0.42517705-11.5798245 0.8003338a67.77824062 67.77824062 0 0 0-0.77532276 11.77990751v764.24343487c0 6.25260498 0.42517705 9.82909511 0.77532276 11.77990839 1.90079209 0.3501457 5.42726105 0.80033378 11.5798245 0.80033377h294.44768703v52.34681076z m0 0" p-id="4651" fill="#ffffff"></path><path d="M691.34216855 222.89203847H239.85404844c-10.9295543 0-19.80825381 11.25468983-19.80825292 22.38432627s8.8786995 22.38432714 19.80825292 22.38432716h451.51313115c10.95456444 0 19.80825381-11.22967881 19.80825293-22.38432716 0-11.12963731-8.90370967-22.38432714-19.83326397-22.38432627z m19.80825382 166.91954942c0-11.12963731-8.8786995-22.38432714-19.8082538-22.38432627H239.85404844c-10.9295543 0-19.80825381 11.25468983-19.80825292 22.38432627s8.8786995 22.38432714 19.80825292 22.38432714h451.51313115c10.90454326-0.02501015 19.78324277-11.25468983 19.78324278-22.38432714zM239.82903828 511.96248476c-10.9295543 0-19.80825381 11.25468983-19.80825381 22.38432628s8.8786995 22.38432714 19.80825381 22.38432714h289.74572753c10.95456444 0 19.80825381-11.25468983 19.80825293-22.38432714s-8.85368935-22.38432714-19.80825293-22.38432626H239.82903828zM466.82361934 656.49770703H239.82903828c-10.9295543 0-19.80825381 11.22967881-19.80825381 22.38432715s8.8786995 22.38432714 19.80825381 22.38432715H466.82361934c10.95456444 0 19.80825381-11.25468983 19.80825381-22.38432715s-8.8786995-22.38432714-19.80825381-22.38432715z m0 0M733.95992656 623.05877481c78.73280508 0 142.83451407 65.22717831 142.83451405 145.38557724s-64.10170898 145.38557724-142.83451405 145.38557725-142.8095039-65.22717831-142.80950479-145.38557725 64.05168778-145.38557724 142.80950479-145.38557728m0-48.47019606c-105.21884092 0-190.42934589 86.76115049-190.42934589 193.85577334s85.2105041 193.85577337 190.42934589 193.85577334 190.42934589-86.76115049 190.42934502-193.85577334-85.2105041-193.85577337-190.42934502-193.85577334z m0 0" p-id="4652" fill="#ffffff"></path><path d="M671.00869619 736.00583575l94.81450605 96.54022528c7.72822001 7.87828271 21.80908741 6.30262617 29.53730745-1.57565653s9.27886642-22.20925342 1.55064638-30.08753702l-94.81450608-96.51521426c-7.72822001-7.87828271-21.83409756-6.30262617-29.56231758 1.57565655-7.72822001 7.87828271-9.25385537 22.18424326-1.52563622 30.06252598z" p-id="4653" fill="#ffffff"></path><path d="M796.91115605 736.00583575l-94.81450604 96.54022528c-7.75323018 7.87828271-21.83409756 6.30262617-29.5623176-1.57565653s-9.27886642-22.20925342-1.55064637-30.08753702l94.81450605-96.51521426c7.75323018-7.87828271 21.83409756-6.30262617 29.5623176 1.57565655 7.75323018 7.87828271 9.30387657 22.18424326 1.55064638 30.06252598z" p-id="4654" fill="#ffffff"></path></svg>